<svg width="306" height="86" fill="none" xmlns="http://www.w3.org/2000/svg"><path fill-rule="evenodd" clip-rule="evenodd" d="M294.626 53.1654c0 .1047-.073.1895-.163.1895-2.525 0-3.871.6503-6.023 1.6899-.168.0813-.341.1649-.52.2508-.3.1439-.641.0551-.982-.1488-.345-.206-.721-.5477-1.113-.9756-.785-.8569-1.664-2.0923-2.522-3.3854-.576-.8672-1.145-1.7661-1.673-2.5988-.259-.4093-.509-.8026-.743-1.1683-.358-.5564-.681-1.0488-.959-1.4403-.28-.3954-.503-.6746-.661-.8153-4.217-3.7577-10.11-.6978-11.119 4.5947-.248 1.3037-.517 2.283-.809 3.0012-.291.7171-.613 1.1889-.975 1.457-.739.5473-1.56.1896-2.395-.333-.249-.1559-.502-.3281-.761-.5045-.639-.4343-1.315-.8938-2.057-1.1971-1.027-.4199-2.156-.5248-3.416.2095-.385.2242-.927.7591-1.534 1.4563-.603.6916-1.255 1.5251-1.858 2.3273-.602.8007-1.154 1.5678-1.557 2.1284l-.001.0022c-.202.2799-.367.5093-.482.6646-.057.0772-.104.1388-.137.1798-.016.0191-.034.0398-.05.0555l-.001.0005c-.005.0051-.025.0246-.054.037-.011.0048-.059.0259-.117.0003-.077-.0341-.101-.1141-.105-.1556-.201-1.8767-1.105-3.8999-2.377-5.3782-1.273-1.4792-2.89-2.3856-4.514-2.0945-2.627.471-4.145 2.3188-5.41 4.542-.404.7111-.778 1.4519-1.155 2.1977-.216.4271-.432.8558-.656 1.2816-.609 1.1613-1.264 2.2855-2.073 3.2274-.1.1165-.211.1912-.333.218-.122.0267-.239.0027-.347-.0479-.207-.0976-.401-.3064-.574-.5182-.088-.1085-.175-.2241-.259-.3352l-.001-.0011c-.084-.1118-.165-.2189-.244-.3156-.079-.0972-.153-.1796-.222-.2424-.07-.0637-.127-.0996-.171-.1145-.61-.2031-1.429-.2496-2.26-.197-.828.0525-1.654.2024-2.27.3819-.988.2879-2.242 1.0455-3.643 2.0107-.761.524-1.551 1.1-2.36 1.6891-.686.4992-1.384 1.0078-2.088 1.5021-1.523 1.07-3.05 2.0575-4.444 2.6723-1.387.6121-2.677.8703-3.707.4282-.787-.3381-1.482-.6992-2.136-1.049-.115-.0614-.228-.1224-.341-.1828-.529-.2847-1.035-.5568-1.553-.8009-1.249-.5889-2.556-1.0102-4.354-1.0102-.826 0-1.292.2058-1.602.4605-.156.1289-.279.2751-.39.4274-.049.0665-.095.1328-.141.2001l-.022.0315c-.053.0771-.108.1556-.166.2301-.116.1498-.248.2911-.422.3927-.175.1022-.382.1583-.64.1557-.509-.005-1.231-.238-2.344-.8147-1.663-.8613-3.156-2.2407-4.631-3.6714-.173-.1672-.345-.3351-.517-.503-1.306-1.2745-2.613-2.5498-4.043-3.5331-.468-.3217-1.295-1.0238-2.339-1.9108-.364-.3091-.755-.6407-1.166-.9864-1.597-1.3437-3.516-2.9133-5.435-4.2532-1.923-1.3421-3.833-2.444-5.413-2.8644-.79-.2101-1.483-.2461-2.049-.0697-.56.1743-1.003.5579-1.301 1.2128-.896 1.9739-.833 4.1468-.768 6.3662.005.1733.01.3469.015.5207.064 2.3797.04 4.7901-1.359 6.8864-1.948 2.9196-3.321 6.5312-3.321 10.3303 0 .9658-.241 3.8276-.604 6.3247-.181 1.2485-.395 2.4182-.627 3.2193-.115.3959-.24.7242-.38.9246-.07.1-.158.1903-.268.2224-.122.0354-.235-.0093-.327-.0988-.886-.8602-2.361-1.2858-4.146-1.4964-1.527-.1802-3.251-.2006-4.973-.221-.283-.0033-.567-.0067-.849-.0108-1.993-.0286-3.942-.0926-5.509-.4497-1.557-.3549-2.796-1.0126-3.283-2.2893-.302-.7931-.428-1.5597-.516-2.2565-.02-.16-.038-.3151-.056-.4654-.059-.5132-.112-.9706-.221-1.3794-.138-.515-.36-.9312-.79-1.2404-.437-.3146-1.106-.5297-2.156-.5941-1.488-.0912-2.497-.3993-3.18-.9227-.693-.5299-1.034-1.2657-1.215-2.154-.156-.766-.195-1.6617-.239-2.6481-.006-.1426-.013-.2871-.02-.4333-.054-1.1662-.137-2.4661-.424-3.8845-.046-.2284-.093-.5668-.146-.951-.016-.1122-.032-.2282-.049-.3466-.075-.5303-.165-1.118-.285-1.6514-.12-.5384-.265-.9997-.442-1.2905-.087-.1441-.174-.2325-.258-.2749-.079-.0396-.168-.046-.28.0046-2.705 1.226-5.487 2.0841-8.278 2.9447l-.179.0554c-2.205.6801-3.719 1.0481-4.787 1.1027-1.074.0548-1.733-.2058-2.186-.8243-.221-.3014-.385-.6771-.528-1.1139-.144-.4364-.27-.946-.411-1.5185l-.017-.0717c-.28-1.1361-.625-2.541-1.278-4.2159-.565-1.4486-1.348-2.4414-2.243-3.3305-.4-.3982-.821-.774-1.256-1.1622-.052-.0467-.105-.0935-.157-.1407-.49-.4375-.994-.8943-1.494-1.4125-.363-.3765-.936-.7708-1.61-1.1895-.296-.1837-.616-.375-.943-.5706-.402-.2402-.814-.4867-1.205-.7335-.719-.4534-1.407-.9321-1.931-1.4397-.519-.503-.907-1.0624-.97-1.6845-.126-1.2503-.551-1.8267-1.094-2.0348-.568-.2173-1.321-.0583-2.14.3226-1.63.758-3.3825 2.3262-4.104 2.9988-.8797.8202-1.7502 1.62-2.6091 2.4092-6.2909 5.78-11.9613 10.99-16.1189 19.4687l-.0311.0635c-.3811.7782-1.7046 3.4805-2.9871 5.2208-.3306.4487-.6633.8402-.9808 1.1193-.3127.275-.6345.4623-.939.4547-.3259-.0082-.5844-.236-.7619-.6575-.1736-.4124-.2811-1.031-.3178-1.8867-.1102-2.569-.921-5.3152-1.9689-7.9822-.8185-2.0832-1.7764-4.1056-2.6498-5.9494-.2446-.5165-.4825-1.0189-.709-1.5047-4.2652-9.1521-8.9936-18.5816-16.4111-24.6161-.5382-.4378-1.0193-.8193-1.4556-1.1653-1.1624-.9217-2.0072-1.5917-2.7674-2.4037-1.0529-1.1247-1.9449-2.521-3.3204-5.2259-.1015-.1997-.2035-.4009-.306-.6031-1.4035-2.7686-2.9032-5.727-4.7523-7.7673-.9894-1.0916-2.0715-1.9116-3.2837-2.299-1.2099-.3867-2.5611-.3464-4.0966.3043-.5349.2266-1.107.6864-1.6892 1.2955-.5807.6073-1.1626 1.3537-1.7176 2.1411-.9056 1.2848-1.7318 2.6671-2.3595 3.7174-.1422.2381-.2743.459-.3948.658-4.4828 7.4006-10.2266 13.1714-16.03816 19.0101-.93582.9402-1.87341 1.8822-2.8078 2.833-.06763.0689-.17035.0608-.22943-.0181-.05905-.0788-.05209-.1985.01556-.2673.93717-.9537 1.8765-1.8975 2.81314-2.8387C15.1777 34.4466 20.8878 28.7091 25.3457 21.3496c.1187-.196.2495-.4149.3908-.6513.6277-1.0502 1.4632-2.4483 2.3779-3.746.5608-.7956 1.1543-1.5578 1.7516-2.1827.5957-.6231 1.2041-1.1191 1.7954-1.3696 1.5928-.675 3.013-.7229 4.2937-.3136 1.2785.4087 2.406 1.2691 3.4213 2.3893 1.884 2.0788 3.4061 5.0822 4.803 7.8384.1045.2062.2083.4111.3115.614 1.3705 2.6951 2.2431 4.0531 3.2603 5.1397.7417.7922 1.5594 1.4407 2.7116 2.3544.4392.3483.927.7352 1.4778 1.1833 7.4883 6.092 12.2481 15.5993 16.5108 24.7459.2243.4812.4607.9804.7043 1.4947.8742 1.8454 1.8401 3.8848 2.6644 5.9826 1.0538 2.6821 1.8847 5.4803 1.998 8.121.036.8382.1405 1.3955.285 1.7386.1406.334.3061.4413.4769.4456.1924.0048.44-.118.7361-.3783.2912-.256.6066-.6248.93-1.0637 1.2612-1.7114 2.5718-4.3868 2.9531-5.1653l.0295-.0601c4.1909-8.5468 9.9134-13.8037 16.2014-19.5801.8589-.789 1.7283-1.5877 2.6058-2.4057.7206-.6719 2.5071-2.2737 4.1871-3.0548.835-.3886 1.68-.5915 2.361-.3308.705.2699 1.181 1.0113 1.316 2.3507.048.4718.352.95.855 1.4373.498.4826 1.162.9468 1.877 1.3978.397.2501.797.4889 1.19.7239.325.1942.646.3858.957.5791.673.4179 1.277.8306 1.673 1.2406.491.5084.987.958 1.476 1.3952.052.0471.105.094.158.1409.433.3873.861.7693 1.268 1.1743.917.911 1.737 1.9462 2.328 3.462.664 1.7007 1.014 3.1281 1.293 4.265l.019.075c.141.5762.264 1.0693.401 1.4875.137.4177.285.7484.472 1.0031.362.4937.901.7441 1.925.6918 1.029-.0525 2.511-.4099 4.717-1.0904l.173-.0531c2.795-.8622 5.562-1.7156 8.25-2.9338.185-.0837.363-.0817.527.0008.158.0798.288.2273.395.4036.212.3501.369.868.491 1.4141.123.5511.215 1.1532.291 1.685.018.1244.034.2445.05.359.053.3805.098.6995.141.9137.293 1.4522.377 2.7795.432 3.9506.007.1481.014.2933.02.4358.044.9921.082 1.849.231 2.5788.167.8229.472 1.4622 1.076 1.9248.613.469 1.553.7711 3.019.861 1.074.0658 1.805.2872 2.31.65.512.3683.775.8706.929 1.4503.118.4422.176.9423.236 1.4619.017.1456.034.2928.053.4406.086.6851.207 1.4115.491 2.1575.417 1.0927 1.506 1.7196 3.049 2.0712 1.533.3495 3.453.4141 5.45.4428.281.004.563.0074.846.0107 1.721.0203 3.462.0408 5.005.2229 1.789.2112 3.354.6429 4.321 1.5824.031.0295.04.0223.04.0222.012-.0033.044-.0213.095-.0936.1-.1442.211-.4165.324-.8069.223-.7714.433-1.9167.614-3.1613.362-2.4893.6-5.327.6-6.2615 0-3.9051 1.409-7.5963 3.389-10.563 1.321-1.978 1.355-4.2584 1.291-6.642-.005-.1781-.01-.3569-.015-.5362-.066-2.1994-.133-4.4723.806-6.5397.341-.7513.86-1.201 1.504-1.4016.637-.1985 1.389-.1509 2.205.0663 1.633.4343 3.579 1.5624 5.508 2.9088 1.932 1.3485 3.86 2.9259 5.459 4.271.42.3533.816.6898 1.183 1.0017 1.037.8806 1.843 1.5648 2.296 1.8764 1.455 1.0003 2.784 2.2971 4.087 3.5692.173.168.344.3356.516.5021 1.476 1.432 2.938 2.7789 4.555 3.6163 1.106.5732 1.777.7777 2.214.7821.215.0021.37-.0441.492-.1156.124-.0723.225-.1763.327-.3076.051-.0661.101-.1372.154-.2142.052-.0759.108-.158.169-.2399.121-.1653.263-.337.45-.4908.377-.3108.914-.53 1.789-.53 1.848 0 3.198.4351 4.476 1.0379.526.2478 1.04.5246 1.57.8094.112.0601.224.1205.338.1812.652.3487 1.337.7049 2.113 1.0378.915.3927 2.109.1775 3.479-.427 1.365-.602 2.871-1.5744 4.391-2.6425.691-.4849 1.388-.993 2.076-1.4935.816-.594 1.617-1.1775 2.374-1.6993 1.4-.9643 2.691-1.7493 3.731-2.0522.637-.1857 1.483-.3389 2.33-.3926.845-.0535 1.706-.0091 2.367.211.102.0338.196.1021.282.1804.087.0793.174.1769.258.2799.083.1021.167.2138.25.3235l.003.0038c.085.1121.168.2223.251.3248.171.2101.324.3635.46.4277.065.0303.118.037.164.0268.047-.0101.101-.0402.164-.1136.781-.9096 1.42-2.0032 2.026-3.1572.217-.4136.431-.837.646-1.262.38-.7528.763-1.5108 1.171-2.2289 1.286-2.2607 2.872-4.2124 5.631-4.7072 1.763-.3159 3.478.6719 4.794 2.2007 1.229 1.4291 2.133 3.3545 2.419 5.209.108-.1484.252-.3485.424-.5879l.003-.003c.402-.5603.956-1.3301 1.56-2.134.606-.805 1.264-1.6464 1.875-2.3475.606-.6955 1.18-1.2711 1.616-1.5253 1.357-.7902 2.58-.6737 3.67-.2281.773.316 1.493.8055 2.141 1.246.252.1716.494.3358.723.4793.846.5292 1.502.7655 2.067.347.29-.2148.578-.6159.855-1.2994.278-.6823.54-1.6312.786-2.9211 1.057-5.5451 7.216-8.7502 11.633-4.8135.191.1699.435.4802.715.875.283.3988.61.8972.968 1.4545.237.3695.488.7649.748 1.1753.526.8308 1.092 1.7231 1.665 2.5871.856 1.291 1.722 2.5058 2.487 3.3406.383.418.734.7324 1.039.915.309.1846.541.2166.71.1356.18-.0865.355-.1708.525-.2529 2.152-1.0401 3.551-1.7163 6.142-1.7163.09 0 .163.0848.163.1894Z" fill="#fff"/><path d="M24.573 3.79193h.9066c.5497 0 .798-.31895.798-.74153 0-.42662-.2564-.66751-.4908-.68232v-.02691c.2171-.0646.3984-.23686.3984-.58138 0-.40778-.2425-.72404-.746-.72404h-.8662v2.75618Zm.3569-.35663v-.88284h.5278c.2864 0 .4654.21532.4654.47775 0 .23148-.1352.40509-.4782.40509h-.515Zm0-1.20718v-.83843h.4873c.283 0 .4181.17361.4181.40239 0 .26647-.1871.43604-.4273.43604h-.4781ZM27.1886 3.79193h1.4967v-.35798h-1.1398v-.84381h1.0486V2.2335h-1.0486v-.83977h1.126v-.35798h-1.4829v2.75618ZM29.4569 3.79193h.1017c.5381 0 .6674-.46564.6986-1.35117l.037-1.05241h.8072v2.40358h.3522V1.03575h-1.4955l-.0404 1.29465c-.0254.79806-.1085 1.09009-.3915 1.09817l-.0693.00269v.36067ZM32.4611 1.03575v2.75618h.328l1.2022-2.02138h.0219v2.02138h.3569V1.03575h-.3303l-1.2033 2.02407h-.022V1.03575h-.3534ZM36.7793 3.79193h.4353l-.9758-1.50998.9816-1.2462h-.4423l-.9204 1.16411h-.1224V1.03575h-.3569v2.75618h.3569V2.55649h.2448l.7992 1.23544ZM38.0639 1.03575v2.75618h.328l1.2022-2.02138h.0219v2.02138h.3569V1.03575h-.3303l-1.2034 2.02407h-.0219V1.03575h-.3534ZM40.9812 1.03575v2.75618h.328l1.2022-2.02138h.0219v2.02138h.3569V1.03575h-.3303l-1.2034 2.02407h-.0219V1.03575h-.3534Zm1.1814-.699812c0 .135925-.0647.2557-.2263.2557-.164 0-.2252-.121121-.2252-.2557h-.283c0 .302803.1975.5114.5082.5114.3129 0 .5104-.208597.5104-.5114h-.2841ZM23.0938 8.33963h.3568V7.13784h1.1791v1.20179h.358V5.58345h-.358V6.7812h-1.1791V5.58345h-.3568v2.75618ZM28.0496 6.96154c0-.88149-.4527-1.41577-1.0647-1.41577-.6144 0-1.0659.53428-1.0659 1.41577 0 .88015.4515 1.41577 1.0659 1.41577.612 0 1.0647-.53428 1.0647-1.41577Zm-.3533 0c0 .67155-.3049 1.03626-.7114 1.03626-.4077 0-.7114-.36471-.7114-1.03626s.3037-1.03626.7114-1.03626c.4065 0 .7114.36471.7114 1.03626ZM28.9823 8.33963h.9066c.5497 0 .798-.31895.798-.74153 0-.42662-.2564-.66751-.4908-.68232v-.02691c.2171-.0646.3984-.23686.3984-.58139 0-.40777-.2425-.72403-.746-.72403h-.8662v2.75618Zm.3569-.35663v-.88284h.5278c.2864 0 .4654.21532.4654.47775 0 .23148-.1352.40509-.4782.40509h-.515Zm0-1.20718v-.83843h.4873c.283 0 .4181.17361.4181.40239 0 .26647-.1871.43604-.4273.43604h-.4781ZM33.0727 5.58345h-1.4748v2.75618h.3569v-2.3982h1.1179v-.35798ZM35.9187 6.96154c0-.88149-.4527-1.41577-1.0648-1.41577-.6144 0-1.0659.53428-1.0659 1.41577 0 .88015.4515 1.41577 1.0659 1.41577.6121 0 1.0648-.53428 1.0648-1.41577Zm-.3534 0c0 .67155-.3049 1.03626-.7114 1.03626-.4077 0-.7114-.36471-.7114-1.03626s.3037-1.03626.7114-1.03626c.4065 0 .7114.36471.7114 1.03626ZM36.8514 8.33963h.3568v-.96897h.4851c.5485 0 .8199-.38624.8199-.89495 0-.50736-.2691-.89226-.8188-.89226h-.843v2.75618Zm.3568-1.32157V5.94008h.4481c.3534 0 .4977.22341.4977.53563 0 .31222-.1443.54235-.4931.54235h-.4527ZM41.4738 6.96154c0-.88149-.4527-1.41577-1.0648-1.41577-.6143 0-1.0659.53428-1.0659 1.41577 0 .88015.4516 1.41577 1.0659 1.41577.6121 0 1.0648-.53428 1.0648-1.41577Zm-.3534 0c0 .67155-.3049 1.03626-.7114 1.03626-.4076 0-.7113-.36471-.7113-1.03626s.3037-1.03626.7113-1.03626c.4065 0 .7114.36471.7114 1.03626ZM42.2275 9.0058h.3418v-.66617h1.5879v.66213h.3419V7.98703h-.2679V5.58345h-1.4586l-.0554 1.16411c-.0358.7671-.1756 1.08336-.3338 1.23947h-.1559V9.0058Zm.5763-1.01877c.1351-.25166.2263-.65674.2552-1.23947l.0369-.80613h.7934v2.0456h-1.0855ZM2.39203 47.649H.567383v2.7562h.355691v-2.4009H2.03634v2.4009h.35569V47.649ZM5.38988 48.5453c-.08084-.5894-.47695-.934-.97699-.934-.61207 0-1.06361.5343-1.06361 1.4158s.44923 1.4158 1.06361 1.4158c.51968 0 .89962-.3795.97699-.9246l-.36031-.0013c-.0612.3526-.31527.5464-.61437.5464-.40535 0-.71138-.3621-.71138-1.0363 0-.6689.30487-1.0363.71253-1.0363.30142 0 .55433.1979.61322.5545h.36031ZM7.70551 50.4052h.43538l-.97584-1.51.98161-1.2462h-.4423l-.92041 1.1641h-.12241V47.649h-.35685v2.7562h.35685v-1.2354h.24482l.79915 1.2354ZM10.9271 49.0271c0-.8815-.4527-1.4158-1.06475-1.4158-.61437 0-1.06592.5343-1.06592 1.4158 0 .8801.45155 1.4158 1.06592 1.4158.61205 0 1.06475-.5343 1.06475-1.4158Zm-.3534 0c0 .6716-.3048 1.0363-.71135 1.0363-.40766 0-.71138-.3647-.71138-1.0363 0-.6715.30372-1.0363.71138-1.0363.40655 0 .71135.3648.71135 1.0363ZM11.8598 50.4052h.9066c.5497 0 .798-.319.798-.7415 0-.4267-.2564-.6676-.4908-.6824v-.0269c.2171-.0646.3984-.2368.3984-.5814 0-.4077-.2425-.724-.746-.724h-.8662v2.7562Zm.3569-.3566v-.8829h.5277c.2864 0 .4654.2153.4654.4778 0 .2314-.1351.4051-.4781.4051h-.515Zm0-1.2072v-.8384h.4873c.2829 0 .4181.1736.4181.4023 0 .2665-.1871.4361-.4273.4361h-.4781ZM53.6445 58.2388h.7368v2.3982h.3557v-2.3982h.738v-.3579h-1.8305v.3579ZM56.3672 60.637h.9066c.5497 0 .798-.3189.798-.7415 0-.4266-.2564-.6675-.4908-.6823v-.0269c.2171-.0646.3984-.2369.3984-.5814 0-.4078-.2425-.724-.746-.724h-.8662v2.7561Zm.3569-.3566v-.8828h.5278c.2864 0 .4654.2153.4654.4777 0 .2315-.1352.4051-.4782.4051h-.515Zm0-1.2072v-.8384h.4873c.283 0 .4181.1736.4181.4024 0 .2665-.1871.436-.4273.436h-.4781ZM58.9828 60.637h1.4967v-.3579h-1.1398v-.8439h1.0486v-.3566h-1.0486v-.8398h1.126v-.3579h-1.4829v2.7561ZM61.4301 60.637h.3569v-.9689h.485c.5486 0 .8199-.3863.8199-.895 0-.5073-.269-.8922-.8187-.8922h-.8431v2.7561Zm.3569-1.3215v-1.078h.448c.3534 0 .4978.2234.4978.5356s-.1444.5424-.4931.5424h-.4527ZM64.3584 58.9925v-1.1116h-.358v2.7561h.8858c.5266 0 .828-.3418.8268-.8357.0012-.4926-.3002-.8088-.8268-.8088h-.5278Zm0 .3499h.5278c.306 0 .4746.2045.4746.4535 0 .2557-.1686.4912-.4746.4912h-.5278v-.9447ZM85.5695 68.9745v-2.7562h-.843c-.5486 0-.8188.3567-.8188.864 0 .3701.1444.6514.4342.7766l-.5243 1.1156h.4065l.4804-1.043h.5082v1.043h.3568Zm-.3568-1.4009H84.76c-.3476 0-.4931-.1804-.4931-.4913 0-.3122.1455-.5073.4977-.5073h.4481v.9986ZM86.5758 68.9745h.3569v-.9689h.485c.5486 0 .82-.3863.82-.895 0-.5074-.2691-.8923-.8188-.8923h-.8431v2.7562Zm.3569-1.3215v-1.078h.4481c.3534 0 .4977.2234.4977.5356s-.1443.5424-.4931.5424h-.4527ZM91.1983 67.5964c0-.8815-.4527-1.4157-1.0648-1.4157-.6144 0-1.0659.5342-1.0659 1.4157 0 .8802.4515 1.4158 1.0659 1.4158.6121 0 1.0648-.5343 1.0648-1.4158Zm-.3534 0c0 .6716-.3049 1.0363-.7114 1.0363-.4076 0-.7114-.3647-.7114-1.0363 0-.6715.3038-1.0362.7114-1.0362.4065 0 .7114.3647.7114 1.0362ZM94.0954 67.1146c-.0809-.5894-.477-.9339-.977-.9339-.6121 0-1.0636.5342-1.0636 1.4157s.4492 1.4158 1.0636 1.4158c.5197 0 .8996-.3795.977-.9245l-.3603-.0014c-.0612.3526-.3153.5464-.6144.5464-.4054 0-.7114-.362-.7114-1.0363 0-.6688.3049-1.0362.7125-1.0362.3014 0 .5544.1978.6133.5544h.3603ZM94.8312 68.9745h.1016c.5382 0 .6675-.4656.6987-1.3511l.0369-1.0525h.8073v2.4036h.3522v-2.7562h-1.4955l-.0404 1.2947c-.0255.7981-.1086 1.0901-.3915 1.0982l-.0693.0027v.3606ZM98.0352 68.9745l.2171-.7294h.9238l.216.7294h.3788l-.8511-2.7562h-.4123l-.8511 2.7562h.3788Zm.321-1.0793.3488-1.1762h.0185l.3487 1.1762h-.716ZM100.6 68.9745h.907c.549 0 .798-.3189.798-.7415 0-.4266-.257-.6675-.491-.6823v-.0269c.217-.0646.398-.2369.398-.5814 0-.4078-.242-.7241-.746-.7241h-.866v2.7562Zm.357-.3566v-.8828h.528c.286 0 .465.2153.465.4777 0 .2315-.135.4051-.478.4051h-.515Zm0-1.2072v-.8384h.487c.283 0 .418.1736.418.4024 0 .2664-.187.436-.427.436h-.478ZM103.037 68.9745h.101c.539 0 .668-.4656.699-1.3511l.037-1.0525h.807v2.4036h.353v-2.7562h-1.496l-.04 1.2947c-.026.7981-.109 1.0901-.392 1.0982l-.069.0027v.3606ZM106.401 67.33v-1.1117h-.358v2.7562h.886c.527 0 .828-.3418.827-.8357.001-.4926-.3-.8088-.827-.8088h-.528Zm0 .3499h.528c.306 0 .475.2045.475.4535 0 .2557-.169.4912-.475.4912h-.528v-.9447ZM110.984 43.4801v2.7561h.34v-1.9958h.022l.697 1.9918h.282l.698-1.9904h.022v1.9944h.339v-2.7561h-.433l-.753 2.1425h-.028l-.753-2.1425h-.433ZM114.651 46.2362l.217-.7294h.924l.216.7294h.379l-.852-2.7561h-.412l-.851 2.7561h.379Zm.321-1.0793.349-1.1762h.018l.349 1.1762h-.716ZM117.216 46.2362h.357v-1.2017h1.179v1.2017h.358v-2.7561h-.358v1.1977h-1.179v-1.1977h-.357v2.7561ZM120.001 43.838h.737v2.3982h.355V43.838h.738v-.3579h-1.83v.3579ZM122.891 46.2739h.162c.369 0 .492-.2409.595-.5154l.818-2.2784h-.374l-.552 1.5934-.62-1.5934h-.379l.831 2.0684-.033.0983c-.051.144-.129.2611-.306.2611h-.142v.366ZM125.291 46.2362h.357v-.9689h.485c.549 0 .82-.3863.82-.895 0-.5073-.269-.8922-.819-.8922h-.843v2.7561Zm.357-1.3215v-1.078h.448c.354 0 .498.2234.498.5356s-.144.5424-.493.5424h-.453ZM129.914 44.8582c0-.8815-.453-1.4158-1.065-1.4158-.614 0-1.066.5343-1.066 1.4158 0 .8801.452 1.4157 1.066 1.4157.612 0 1.065-.5343 1.065-1.4157Zm-.354 0c0 .6715-.304 1.0362-.711 1.0362-.408 0-.711-.3647-.711-1.0362 0-.6716.303-1.0363.711-1.0363.407 0 .711.3647.711 1.0363ZM130.847 46.2362h.906c.55 0 .798-.3189.798-.7415 0-.4266-.256-.6675-.491-.6823v-.0269c.217-.0646.399-.2369.399-.5814 0-.4078-.243-.724-.746-.724h-.866v2.7561Zm.356-.3566v-.8828h.528c.287 0 .466.2153.466.4777 0 .2315-.136.4051-.479.4051h-.515Zm0-1.2072v-.8384h.488c.283 0 .418.1736.418.4024 0 .2665-.187.436-.428.436h-.478ZM135.517 44.8582c0-.8815-.453-1.4158-1.065-1.4158-.615 0-1.066.5343-1.066 1.4158 0 .8801.451 1.4157 1.066 1.4157.612 0 1.065-.5343 1.065-1.4157Zm-.354 0c0 .6715-.305 1.0362-.711 1.0362-.408 0-.712-.3647-.712-1.0362 0-.6716.304-1.0363.712-1.0363.406 0 .711.3647.711 1.0363ZM129.462 56.8486h.435l-.976-1.51.982-1.2462h-.443l-.92 1.1641h-.122v-1.1641h-.357v2.7562h.357v-1.2355h.244l.8 1.2355ZM132.683 55.4705c0-.8815-.452-1.4158-1.065-1.4158-.614 0-1.065.5343-1.065 1.4158 0 .8801.451 1.4157 1.065 1.4157.613 0 1.065-.5342 1.065-1.4157Zm-.353 0c0 .6715-.305 1.0362-.712 1.0362s-.711-.3647-.711-1.0362c0-.6716.304-1.0363.711-1.0363s.712.3647.712 1.0363ZM133.401 54.4504h.737v2.3982h.355v-2.3982h.738v-.358h-1.83v.358ZM136.124 56.8486h1.496v-.358h-1.14v-.8438h1.049v-.3567h-1.049v-.8397h1.126v-.358h-1.482v2.7562ZM138.392 56.8486h.101c.539 0 .668-.4657.699-1.3512l.037-1.0524h.807v2.4036h.353v-2.7562h-1.496l-.04 1.2946c-.026.7981-.109 1.0901-.392 1.0982l-.069.0027v.3607ZM141.756 55.204v-1.1116h-.358v2.7562h.886c.527 0 .828-.3419.827-.8358.001-.4925-.3-.8088-.827-.8088h-.528Zm0 .3499h.528c.306 0 .475.2046.475.4535 0 .2557-.169.4912-.475.4912h-.528v-.9447ZM144.034 56.8486h.357v-1.2018h1.179v1.2018h.358v-2.7562h-.358v1.1977h-1.179v-1.1977h-.357v2.7562ZM146.935 54.0924v2.7562h.328l1.202-2.0214h.022v2.0214h.357v-2.7562h-.33l-1.203 2.024h-.022v-2.024h-.354ZM149.9 54.0924v.9097c-.001.6151.319.8573.836.8573.228 0 .424-.0337.594-.0902v1.0794h.353v-2.7562h-.353v1.3215c-.177.0552-.396.0889-.594.0889-.308 0-.484-.1212-.484-.5007v-.9097h-.352ZM153.736 55.2969h-1.048v.3485h1.048v-.3485ZM155.511 54.0924h-.332c-.013.0753-.193.4239-.538.4239v.3418c.268 0 .453-.1238.493-.2045h.019v2.195h.358v-2.7562ZM172.296 68.8717h-1.475v2.7561h.357v-2.3982h1.118v-.3579ZM173.007 71.6278h.102c.538 0 .667-.4656.698-1.3511l.037-1.0524h.807v2.4035h.353v-2.7561h-1.496l-.04 1.2946c-.026.7981-.109 1.0901-.392 1.0982l-.069.0027v.3606ZM176.211 71.6278l.217-.7294h.924l.216.7294h.379l-.851-2.7561h-.413l-.851 2.7561h.379Zm.321-1.0793.349-1.1762h.018l.349 1.1762h-.716ZM179.567 71.6655c.483 0 .837-.3364.836-.794.001-.3485-.18-.5989-.494-.6554v-.0215c.247-.074.408-.3001.406-.6097.002-.405-.284-.7509-.739-.7509-.434 0-.783.3055-.794.7536h.345c.008-.253.213-.4064.445-.4064.241 0 .399.1709.398.4253.001.2664-.182.4414-.444.4414h-.2v.3391h.2c.328 0 .517.1938.517.4711 0 .2678-.2.4494-.478.4494-.257 0-.456-.1534-.47-.3983h-.363c.015.4495.357.7563.835.7563ZM183.414 70.2498c0-.8815-.452-1.4158-1.064-1.4158-.615 0-1.066.5343-1.066 1.4158 0 .8801.451 1.4157 1.066 1.4157.612 0 1.064-.5342 1.064-1.4157Zm-.353 0c0 .6715-.305 1.0362-.711 1.0362-.408 0-.712-.3647-.712-1.0362 0-.6716.304-1.0363.712-1.0363.406 0 .711.3647.711 1.0363ZM184.347 71.6278h.907c.549 0 .798-.3189.798-.7415 0-.4266-.257-.6675-.491-.6823v-.0269c.217-.0646.398-.2369.398-.5814 0-.4078-.242-.724-.746-.724h-.866v2.7561Zm.357-.3566v-.8828h.528c.286 0 .465.2153.465.4777 0 .2315-.135.4051-.478.4051h-.515Zm0-1.2072v-.8384h.487c.283 0 .418.1736.418.4024 0 .2665-.187.436-.427.436h-.478ZM173.347 44.4365h-1.825v2.7562h.356v-2.4009h1.113v2.4009h.356v-2.7562ZM174.38 47.1927h1.497v-.358h-1.14v-.8438h1.049v-.3566h-1.049v-.8398h1.126v-.358h-1.483v2.7562ZM176.828 47.1927h.357v-.969h.485c.548 0 .82-.3862.82-.8949 0-.5074-.27-.8923-.819-.8923h-.843v2.7562Zm.357-1.3216v-1.0779h.448c.353 0 .497.2234.497.5356s-.144.5423-.493.5423h-.452ZM179.396 44.4365v2.7562h.339v-1.9958h.022l.698 1.9918h.281l.698-1.9905h.022v1.9945h.339v-2.7562h-.433l-.753 2.1425h-.027l-.753-2.1425h-.433ZM183.223 45.5481v-1.1116h-.358v2.7562h.885c.527 0 .829-.3418.827-.8357.002-.4926-.3-.8089-.827-.8089h-.527Zm0 .35h.527c.307 0 .475.2045.475.4535 0 .2557-.168.4912-.475.4912h-.527v-.9447ZM195.095 58.9972h.737v2.3982h.355v-2.3982h.738v-.358h-1.83v.358ZM198.174 58.6392h-.357v2.7562h.357v-1.1708h.415c.065.7563.492 1.2085 1.057 1.2085.612 0 1.064-.5343 1.064-1.4158s-.452-1.4157-1.064-1.4157c-.581 0-1.017.4777-1.063 1.2744h-.409v-1.2368Zm2.183 1.3781c0 .6716-.305 1.0363-.711 1.0363-.408 0-.712-.3647-.712-1.0363 0-.6715.304-1.0362.712-1.0362.406 0 .711.3647.711 1.0362ZM201.583 58.6392v2.7562h.339v-1.9958h.022l.698 1.9918h.281l.698-1.9904h.022v1.9944h.339v-2.7562h-.433l-.753 2.1425h-.027l-.753-2.1425h-.433ZM205.049 61.3954h1.497v-.358h-1.14v-.8438h1.049v-.3566h-1.049v-.8398h1.126v-.358h-1.483v2.7562ZM207.497 61.3954h.357v-1.2018h1.179v1.2018h.358v-2.7562h-.358v1.1978h-1.179v-1.1978h-.357v2.7562ZM210.758 59.7509v-1.1117h-.358v2.7562h.886c.527 0 .828-.3418.827-.8357.001-.4926-.3-.8088-.827-.8088h-.528Zm0 .3499h.528c.306 0 .475.2045.475.4535 0 .2557-.169.4912-.475.4912h-.528v-.9447ZM227.295 68.3542c0-.8814-.453-1.4157-1.065-1.4157-.614 0-1.066.5343-1.066 1.4157 0 .8802.452 1.4158 1.066 1.4158.612 0 1.065-.5343 1.065-1.4158Zm-.354 0c0 .6716-.305 1.0363-.711 1.0363-.408 0-.711-.3647-.711-1.0363 0-.6715.303-1.0362.711-1.0362.406 0 .711.3647.711 1.0362ZM228.227 66.9762v2.7561h.34v-1.9958h.022l.697 1.9918h.282l.698-1.9904h.022v1.9944h.339v-2.7561h-.433l-.753 2.1425h-.028l-.752-2.1425h-.434ZM233.659 67.8725c-.081-.5895-.477-.934-.977-.934-.613 0-1.064.5343-1.064 1.4157 0 .8815.449 1.4158 1.064 1.4158.519 0 .899-.3795.977-.9245l-.361-.0014c-.061.3526-.315.5464-.614.5464-.405 0-.712-.362-.712-1.0363 0-.6688.305-1.0362.713-1.0362.301 0 .554.1978.613.5545h.361ZM235.974 69.7323h.436l-.976-1.5099.981-1.2462h-.442l-.92 1.1641h-.123v-1.1641h-.357v2.7561h.357v-1.2354h.245l.799 1.2354ZM262.392 39.7939h.436l-.976-1.51.981-1.2462h-.442l-.92 1.1641h-.123v-1.1641h-.357v2.7562h.357v-1.2355h.245l.799 1.2355ZM263.677 39.7939h.357v-.969h.485c.548 0 .82-.3862.82-.895 0-.5073-.269-.8922-.819-.8922h-.843v2.7562Zm.357-1.3216v-1.078h.448c.353 0 .497.2234.497.5356 0 .3123-.144.5424-.493.5424h-.452ZM266.194 39.7939l.217-.7295h.924l.216.7295h.378l-.851-2.7562h-.412l-.851 2.7562h.379Zm.321-1.0794.348-1.1762h.019l.349 1.1762h-.716ZM270.612 37.934c-.081-.5895-.477-.934-.977-.934-.612 0-1.064.5343-1.064 1.4158s.45 1.4157 1.064 1.4157c.52 0 .9-.3795.977-.9245l-.36-.0014c-.062.3526-.316.5464-.615.5464-.405 0-.711-.362-.711-1.0362 0-.6689.305-1.0363.712-1.0363.302 0 .555.1978.614.5545h.36ZM271.527 39.7939h.357v-1.2018h1.179v1.2018h.358v-2.7562h-.358v1.1977h-1.179v-1.1977h-.357v2.7562ZM276.483 38.4158c0-.8815-.453-1.4158-1.065-1.4158-.614 0-1.066.5343-1.066 1.4158 0 .8801.452 1.4157 1.066 1.4157.612 0 1.065-.5342 1.065-1.4157Zm-.354 0c0 .6715-.305 1.0362-.711 1.0362-.408 0-.711-.3647-.711-1.0362 0-.6716.303-1.0363.711-1.0363.406 0 .711.3647.711 1.0363ZM278.993 39.7939v-2.7562h-.843c-.549 0-.819.3566-.819.864 0 .3701.144.6513.434.7765l-.524 1.1157h.406l.481-1.043h.508v1.043h.357Zm-.357-1.401h-.453c-.347 0-.493-.1803-.493-.4912 0-.3122.146-.5074.498-.5074h.448v.9986ZM279.999 39.7939h.357v-.969h.485c.549 0 .82-.3862.82-.895 0-.5073-.269-.8922-.819-.8922h-.843v2.7562Zm.357-1.3216v-1.078h.448c.354 0 .498.2234.498.5356 0 .3123-.144.5424-.493.5424h-.453ZM284.532 37.934c-.081-.5895-.477-.934-.977-.934-.613 0-1.064.5343-1.064 1.4158s.449 1.4157 1.064 1.4157c.519 0 .899-.3795.977-.9245l-.361-.0014c-.061.3526-.315.5464-.614.5464-.405 0-.712-.362-.712-1.0362 0-.6689.305-1.0363.713-1.0363.301 0 .554.1978.613.5545h.361ZM286.847 39.7939h.436l-.976-1.51.981-1.2462h-.442l-.92 1.1641h-.123v-1.1641h-.357v2.7562h.357v-1.2355h.245l.799 1.2355ZM285.324 61.4331h.161c.37 0 .492-.2409.596-.5154l.818-2.2785h-.374l-.552 1.5935-.621-1.5935h-.378l.831 2.0685-.033.0983c-.051.144-.13.2611-.306.2611h-.142v.366ZM287.545 61.3954h.102c.538 0 .667-.4656.698-1.3511l.037-1.0525h.808v2.4036h.352v-2.7562h-1.496l-.04 1.2947c-.026.7981-.109 1.0901-.392 1.0982l-.069.0027v.3606ZM290.749 61.3954l.217-.7294h.924l.216.7294h.379l-.851-2.7562h-.413l-.851 2.7562h.379Zm.321-1.0793.349-1.1762h.018l.349 1.1762h-.716ZM293.314 61.3954h.357v-1.2018h1.179v1.2018h.358v-2.7562h-.358v1.1978h-1.179v-1.1978h-.357v2.7562ZM297.233 59.8437h-1.049v.3486h1.049v-.3486ZM298.17 61.4331h.161c.37 0 .492-.2409.596-.5154l.818-2.2785h-.374l-.552 1.5935-.62-1.5935h-.379l.831 2.0685-.033.0983c-.051.144-.13.2611-.306.2611h-.142v.366ZM300.391 62.0616h.342v-.6662h1.588v.6622h.342v-1.0148h-.268v-2.4036h-1.459l-.055 1.1642c-.036.7671-.176 1.0833-.334 1.2394h-.156v1.0188Zm.576-1.0188c.136-.2516.227-.6567.256-1.2394l.037-.8062h.793v2.0456h-1.086ZM303.466 60.5207c.045.5221.339.9124.909.9124.571 0 .936-.4966.936-1.2691v-.2866c0-.7725-.37-1.2758-.955-1.2758-.557 0-.845.3956-.891.9286h.364c.037-.358.181-.5707.527-.5707.38 0 .592.358.593.9152h-.872v.3526h.871c-.015.4858-.197.8532-.573.8532-.354 0-.506-.1965-.546-.5598h-.363Z" fill="#fff"/><path d="M35.1937 13.0142c0 .731-.5086 1.3237-1.1359 1.3237-.6274 0-1.1359-.5927-1.1359-1.3237 0-.7311.5085-1.3238 1.1359-1.3238.6273 0 1.1359.5927 1.1359 1.3238Z" fill="#272722"/><path fill-rule="evenodd" clip-rule="evenodd" d="M34.0578 13.9589c.4477 0 .8107-.423.8107-.9447 0-.5218-.363-.9448-.8107-.9448-.4478 0-.8107.423-.8107.9448 0 .5217.3629.9447.8107.9447Zm0 .379c.6273 0 1.1359-.5927 1.1359-1.3237 0-.7311-.5086-1.3238-1.1359-1.3238-.6274 0-1.1359.5927-1.1359 1.3238 0 .731.5085 1.3237 1.1359 1.3237Z" fill="#fff"/><path d="M7.30404 43.771c0 .7311-.50856 1.3237-1.13591 1.3237-.62734 0-1.1359-.5926-1.1359-1.3237 0-.7311.50856-1.3237 1.1359-1.3237.62735 0 1.13591.5926 1.13591 1.3237Z" fill="#131313"/><path fill-rule="evenodd" clip-rule="evenodd" d="M6.16813 44.7157c.44774 0 .81071-.4229.81071-.9447s-.36297-.9448-.81071-.9448-.8107.423-.8107.9448.36296.9447.8107.9447Zm0 .379c.62735 0 1.13591-.5926 1.13591-1.3237 0-.7311-.50856-1.3237-1.13591-1.3237-.62734 0-1.1359.5926-1.1359 1.3237 0 .7311.50856 1.3237 1.1359 1.3237Z" fill="#fff"/><path d="M70.4058 59.3442c0 .7311-.5085 1.3238-1.1359 1.3238-.6273 0-1.1359-.5927-1.1359-1.3238 0-.731.5086-1.3237 1.1359-1.3237.6274 0 1.1359.5927 1.1359 1.3237Z" fill="#4D5648"/><path fill-rule="evenodd" clip-rule="evenodd" d="M69.2699 60.289c.4478 0 .8107-.423.8107-.9448 0-.5217-.3629-.9447-.8107-.9447-.4477 0-.8107.423-.8107.9447 0 .5218.363.9448.8107.9448Zm0 .379c.6274 0 1.1359-.5927 1.1359-1.3238 0-.731-.5085-1.3237-1.1359-1.3237-.6273 0-1.1359.5927-1.1359 1.3237 0 .7311.5086 1.3238 1.1359 1.3238Z" fill="#fff"/><path d="M80.9137 67.6186c0 .7311-.5086 1.3238-1.1359 1.3238-.6274 0-1.136-.5927-1.136-1.3238 0-.731.5086-1.3237 1.136-1.3237.6273 0 1.1359.5927 1.1359 1.3237Z" fill="#47443E"/><path fill-rule="evenodd" clip-rule="evenodd" d="M79.7778 68.5634c.4477 0 .8107-.423.8107-.9448 0-.5217-.363-.9447-.8107-.9447-.4478 0-.8108.423-.8108.9447 0 .5218.363.9448.8108.9448Zm0 .379c.6273 0 1.1359-.5927 1.1359-1.3238 0-.731-.5086-1.3237-1.1359-1.3237-.6274 0-1.136.5927-1.136 1.3237 0 .7311.5086 1.3238 1.136 1.3238Z" fill="#fff"/><path d="M109.595 48.4243c0 .7311-.508 1.3237-1.136 1.3237-.627 0-1.136-.5926-1.136-1.3237 0-.7311.509-1.3237 1.136-1.3237.628 0 1.136.5926 1.136 1.3237Z" fill="#93A47C"/><path fill-rule="evenodd" clip-rule="evenodd" d="M108.459 49.3691c.448 0 .811-.423.811-.9448s-.363-.9447-.811-.9447c-.447 0-.81.4229-.81.9447s.363.9448.81.9448Zm0 .3789c.628 0 1.136-.5926 1.136-1.3237 0-.7311-.508-1.3237-1.136-1.3237-.627 0-1.136.5926-1.136 1.3237 0 .7311.509 1.3237 1.136 1.3237Z" fill="#fff"/><path d="M134.87 61.3306c0 .731-.509 1.3237-1.136 1.3237-.628 0-1.136-.5927-1.136-1.3237 0-.7311.508-1.3238 1.136-1.3238.627 0 1.136.5927 1.136 1.3238Z" fill="#738F8C"/><path fill-rule="evenodd" clip-rule="evenodd" d="M133.734 62.2753c.447 0 .81-.423.81-.9447 0-.5218-.363-.9448-.81-.9448-.448 0-.811.423-.811.9448 0 .5217.363.9447.811.9447Zm0 .379c.627 0 1.136-.5927 1.136-1.3237 0-.7311-.509-1.3238-1.136-1.3238-.628 0-1.136.5927-1.136 1.3238 0 .731.508 1.3237 1.136 1.3237Z" fill="#fff"/><path d="M168.094 70.2661c0 .7311-.508 1.3237-1.136 1.3237-.627 0-1.136-.5926-1.136-1.3237 0-.7311.509-1.3237 1.136-1.3237.628 0 1.136.5926 1.136 1.3237Z" fill="#789186"/><path fill-rule="evenodd" clip-rule="evenodd" d="M166.958 71.2109c.448 0 .811-.423.811-.9448s-.363-.9447-.811-.9447c-.448 0-.811.4229-.811.9447s.363.9448.811.9448Zm0 .3789c.628 0 1.136-.5926 1.136-1.3237 0-.7311-.508-1.3237-1.136-1.3237-.627 0-1.136.5926-1.136 1.3237 0 .7311.509 1.3237 1.136 1.3237Z" fill="#fff"/><path d="M178.885 50.7417c0 .7311-.508 1.3237-1.136 1.3237-.627 0-1.136-.5926-1.136-1.3237 0-.7311.509-1.3237 1.136-1.3237.628 0 1.136.5926 1.136 1.3237Z" fill="#8CBABB"/><path fill-rule="evenodd" clip-rule="evenodd" d="M177.749 51.6864c.448 0 .811-.4229.811-.9447s-.363-.9448-.811-.9448c-.448 0-.811.423-.811.9448s.363.9447.811.9447Zm0 .379c.628 0 1.136-.5926 1.136-1.3237 0-.7311-.508-1.3237-1.136-1.3237-.627 0-1.136.5926-1.136 1.3237 0 .7311.509 1.3237 1.136 1.3237Z" fill="#fff"/><path d="M197.343 65.6333c0 .7311-.508 1.3237-1.136 1.3237-.627 0-1.136-.5926-1.136-1.3237 0-.7311.509-1.3237 1.136-1.3237.628 0 1.136.5926 1.136 1.3237Z" fill="#414847"/><path fill-rule="evenodd" clip-rule="evenodd" d="M196.207 66.578c.448 0 .811-.4229.811-.9447s-.363-.9448-.811-.9448c-.448 0-.811.423-.811.9448s.363.9447.811.9447Zm0 .379c.628 0 1.136-.5926 1.136-1.3237 0-.7311-.508-1.3237-1.136-1.3237-.627 0-1.136.5926-1.136 1.3237 0 .7311.509 1.3237 1.136 1.3237Z" fill="#fff"/><path d="M231.706 60.6685c0 .731-.509 1.3237-1.136 1.3237-.628 0-1.136-.5927-1.136-1.3237 0-.7311.508-1.3238 1.136-1.3238.627 0 1.136.5927 1.136 1.3238Z" fill="#577379"/><path fill-rule="evenodd" clip-rule="evenodd" d="M230.57 61.6132c.447 0 .81-.423.81-.9447 0-.5218-.363-.9448-.81-.9448-.448 0-.811.423-.811.9448 0 .5217.363.9447.811.9447Zm0 .379c.627 0 1.136-.5927 1.136-1.3237 0-.7311-.509-1.3238-1.136-1.3238-.628 0-1.136.5927-1.136 1.3238 0 .731.508 1.3237 1.136 1.3237Z" fill="#fff"/><path d="M275.585 42.7983c0 .7311-.508 1.3238-1.136 1.3238-.627 0-1.136-.5927-1.136-1.3238 0-.731.509-1.3237 1.136-1.3237.628 0 1.136.5927 1.136 1.3237Z" fill="#3E403A"/><path fill-rule="evenodd" clip-rule="evenodd" d="M274.449 43.7431c.448 0 .811-.423.811-.9448 0-.5217-.363-.9447-.811-.9447-.447 0-.81.423-.81.9447 0 .5218.363.9448.81.9448Zm0 .379c.628 0 1.136-.5927 1.136-1.3238 0-.731-.508-1.3237-1.136-1.3237-.627 0-1.136.5927-1.136 1.3237 0 .7311.509 1.3238 1.136 1.3238Z" fill="#fff"/><path d="M296.085 53.2446c0 .7311-.508 1.3238-1.135 1.3238-.628 0-1.136-.5927-1.136-1.3238 0-.731.508-1.3237 1.136-1.3237.627 0 1.135.5927 1.135 1.3237Z" fill="#181A19"/><path fill-rule="evenodd" clip-rule="evenodd" d="M294.95 54.1894c.447 0 .81-.423.81-.9448 0-.5217-.363-.9447-.81-.9447-.448 0-.811.423-.811.9447 0 .5218.363.9448.811.9448Zm0 .379c.627 0 1.135-.5927 1.135-1.3238 0-.731-.508-1.3237-1.135-1.3237-.628 0-1.136.5927-1.136 1.3237 0 .7311.508 1.3238 1.136 1.3238Z" fill="#fff"/></svg>